Coordinates
version=1
nRows=29
nColumns=24
inDegrees=yes

Units are S.I. units (second, meters, Newtons, ...)
Angles are in degrees.

endheader
time	pelvis_tilt	pelvis_list	pelvis_rotation	pelvis_tx	pelvis_ty	pelvis_tz	hip_flexion_r	hip_adduction_r	hip_rotation_r	knee_angle_r	ankle_angle_r	subtalar_angle_r	mtp_angle_r	hip_flexion_l	hip_adduction_l	hip_rotation_l	knee_angle_l	ankle_angle_l	subtalar_angle_l	mtp_angle_l	lumbar_extension	lumbar_bending	lumbar_rotation
      3.85500000	     -4.54611398	     -7.32923812	      0.21939210	      0.04356308	     -0.01787408	     -0.14834873	     11.50642439	     16.36919181	      9.60784445	    -19.43641032	      0.30529619	     -5.73676908	      9.62522798	     30.53567933	     -7.93658418	     -2.48907639	    -67.76071560	     -7.39739770	     -1.25522852	      4.91512588	      4.95095432	      5.41967682	     -0.96062244
      3.86000000	     -4.55819946	     -7.18432384	      0.07211468	      0.04953304	     -0.01731682	     -0.14808860	     10.74125308	     16.23572192	      9.95367423	    -18.96347046	      0.51609163	     -5.74190729	      9.53926427	     31.24239728	     -7.74575066	     -2.60723419	    -66.92689373	     -6.85283088	     -1.23538889	      5.19010542	      4.90084755	      5.29393171	     -0.79577325
      3.86500000	     -4.54627131	     -7.04437024	     -0.09577169	      0.05549035	     -0.01675443	     -0.14778534	      9.95094935	     16.10446826	     10.31455589	    -18.49155052	      0.67466054	     -5.72207361	      9.43755720	     31.87582774	     -7.58238771	     -2.74228605	    -65.99667985	     -6.29297169	     -1.19562684	      5.45009956	      4.81785329	      5.17510810	     -0.57113393
      3.87000000	     -4.54736615	     -6.91129977	     -0.24030040	      0.06143520	     -0.01626267	     -0.14751162	      9.18130273	     15.96769991	     10.63987748	    -18.01553596	      0.83094939	     -5.69821557	      9.35423832	     32.50374848	     -7.42389893	     -2.86805519	    -64.99489530	     -5.75753583	     -1.16798174	      5.64060062	      4.75051244	      5.06409053	     -0.37009371
      3.87500000	     -4.54212322	     -6.78523982	     -0.38055925	      0.06734149	     -0.01581053	     -0.14726754	      8.41438067	     15.82897236	     10.95341265	    -17.54504176	      0.96202616	     -5.66433405	      9.27423644	     33.09409007	     -7.27530001	     -2.99176387	    -63.91544913	     -5.22236879	     -1.14146737	      5.76455712	      4.66788301	      4.96502750	     -0.15189561
      3.88000000	     -4.63379220	     -6.68094714	     -0.45447616	      0.07324025	     -0.01555334	     -0.14712621	      7.77155866	     15.69340547	     11.17043569	    -17.07595386	      1.11700642	     -5.62340182	      9.26073143	     33.79673805	     -7.10949682	     -3.04640291	    -62.79115469	     -4.73153282	     -1.14256092	      5.80254471	      4.70038441	      4.88312996	     -0.05103695
      3.88500000	     -4.68900124	     -6.54328302	     -0.56363297	      0.07914722	     -0.01527274	     -0.14690528	      7.09436093	     15.53114149	     11.39712203	    -16.62360043	      1.26208008	     -5.59743148	      9.24150485	     34.39231150	     -6.95639701	     -3.17461525	    -61.56258093	     -4.21767954	     -1.07201145	      5.80062116	      4.69173638	      4.76116159	      0.12170073
      3.89000000	     -4.73969560	     -6.41835163	     -0.66355716	      0.08503594	     -0.01504609	     -0.14671037	      6.42090212	     15.37795511	     11.59689234	    -16.17679634	      1.39108634	     -5.58437401	      9.21800246	     34.95186614	     -6.82224298	     -3.30571668	    -60.26383476	     -3.72069221	     -0.99754174	      5.73915244	      4.67206744	      4.65467532	      0.29502320
      3.89500000	     -4.63713689	     -6.27712011	     -0.82191941	      0.09093023	     -0.01467420	     -0.14643988	      5.56563696	     15.21541264	     11.87296130	    -15.72115432	      1.46435191	     -5.62643670	      9.15514596	     35.26759266	     -6.74773061	     -3.58008836	    -58.87793869	     -3.13135799	     -0.85970049	      5.36597316	      4.47490226	      4.53748382	      0.56656699
      3.90000000	     -4.64893446	     -6.14637646	     -0.91195176	      0.09683158	     -0.01449510	     -0.14627936	      4.86186079	     15.05291533	     12.06257818	    -15.29307389	      1.54622956	     -5.68394520	      9.12317653	     35.69961960	     -6.62865596	     -3.76414395	    -57.45001086	     -2.52939517	     -0.66575358	      4.72332158	      4.41781569	      4.41989006	      0.71117173
      3.90500000	     -4.82165872	     -6.07790280	     -0.91255608	      0.10263757	     -0.01460627	     -0.14629803	      4.37902061	     14.94259947	     12.09939354	    -14.90290187	      1.65803148	     -5.68796052	      9.10989489	     36.33255207	     -6.49107497	     -3.77839065	    -55.97071250	     -2.14834620	     -0.55384945	      4.57429839	      4.52507235	      4.37788485	      0.78742893
      3.91000000	     -4.74710708	     -5.95670081	     -0.95773647	      0.10854114	     -0.01443814	     -0.14627874	      3.58796337	     14.77747635	     12.23489553	    -14.47111044	      1.65249843	     -5.82367760	      9.09870703	     36.60261881	     -6.35949626	     -3.97120344	    -54.48603896	     -1.26604462	     -0.13053062	      2.59742968	      4.36689071	      4.27110490	      0.89261038
      3.91500000	     -4.93813684	     -5.87582404	     -1.03340574	      0.11430956	     -0.01464022	     -0.14620111	      3.16899774	     14.66982174	     12.31503189	    -14.17670024	      1.78038822	     -5.77574137	      9.12491409	     37.14338454	     -6.28867532	     -4.09930544	    -52.84948127	     -0.90943564	      0.12824428	      2.46619468	      4.47703115	      4.21397382	      1.00994536
      3.92000000	     -5.09112508	     -5.81203845	     -1.06719600	      0.12013954	     -0.01486827	     -0.14619979	      2.68891957	     14.57135772	     12.32262325	    -13.83612343	      1.89904088	     -5.76827554	      9.12591247	     37.61139506	     -6.22374338	     -4.23711775	    -51.16093211	     -0.61914561	      0.39259529	      2.29158870	      4.56309279	      4.17626055	      1.13761395
      3.92500000	     -4.99793200	     -5.67340237	     -1.23053846	      0.12593930	     -0.01476903	     -0.14609067	      1.94053381	     14.38921015	     12.53235960	    -13.53631080	      2.00319746	     -5.66651797	      9.19724079	     37.68401361	     -6.19352045	     -4.60411472	    -49.37163231	     -0.12414457	      0.83746008	      1.50437629	      4.34058320	      4.07207620	      1.37180903
      3.93000000	     -5.06535955	     -5.61817783	     -1.23036773	      0.13180087	     -0.01500530	     -0.14622651	      1.39537753	     14.28832058	     12.45194946	    -13.23646820	      2.04061700	     -5.68595377	      9.29833501	     37.99574637	     -6.10330469	     -4.75437234	    -47.72063459	      0.69904217	      1.48697089	     -0.86144840	      4.33050244	      4.03489892	      1.40459751
      3.93500000	     -5.24079760	     -5.57701627	     -1.32064480	      0.13755980	     -0.01538641	     -0.14618455	      1.01468043	     14.22482248	     12.49558063	    -13.04501599	      2.15595340	     -5.60776559	      9.34213172	     38.35503990	     -6.10711459	     -4.93721652	    -45.86747313	      0.92386506	      1.99132645	     -0.99013987	      4.41138210	      4.01504926	      1.51723729
      3.94000000	     -5.33535192	     -5.51831869	     -1.42564142	      0.14335942	     -0.01570408	     -0.14615037	      0.54880125	     14.13427663	     12.51364593	    -12.86294754	      2.28367582	     -5.47886434	      9.41698927	     38.56707781	     -6.11678949	     -5.20789384	    -43.95936426	      1.15650842	      2.55132956	     -1.21039285	      4.40384936	      3.97989272	      1.65895132
      3.94500000	     -5.33786361	     -5.47431487	     -1.54941633	      0.14920480	     -0.01596228	     -0.14616627	     -0.03108832	     14.03918528	     12.54506550	    -12.66279668	      2.42737372	     -5.22578557	      9.55629888	     38.63891088	     -6.16293627	     -5.56655658	    -42.04018022	      1.43784404	      3.19512635	     -1.59675281	      4.30360040	      3.98405521	      1.88030986
      3.95000000	     -5.37960747	     -5.44009324	     -1.66698864	      0.15505593	     -0.01631396	     -0.14618596	     -0.53480880	     13.95863840	     12.52567778	    -12.52014364	      2.56472094	     -4.97949280	      9.71029313	     38.72375454	     -6.20054661	     -5.88447866	    -40.10330810	      1.72112557	      3.91128934	     -2.02463115	      4.24214814	      3.98561704	      2.06197447
      3.95500000	     -5.42622420	     -5.41788834	     -1.80392524	      0.16089832	     -0.01672310	     -0.14620635	     -1.01405348	     13.88816871	     12.50579248	    -12.41351226	      2.70900408	     -4.71224342	      9.88575152	     38.78588211	     -6.25908552	     -6.22221462	    -38.16070134	      2.00388175	      4.70531188	     -2.41774793	      4.18169458	      4.00445152	      2.25112729
      3.96000000	     -5.43930937	     -5.39726554	     -1.95603818	      0.16677693	     -0.01715037	     -0.14620779	     -1.50692564	     13.81807621	     12.47425992	    -12.35917495	      2.88079759	     -4.40645138	     10.10614291	     38.77429180	     -6.31986341	     -6.56433687	    -36.21439639	      2.32888408	      5.55414959	     -2.84171159	      4.09290935	      4.02551493	      2.48354487
      3.96500000	     -5.48691864	     -5.39692506	     -2.10672049	      0.17268817	     -0.01764621	     -0.14621916	     -1.96951060	     13.76312780	     12.47631920	    -12.29398199	      3.02202537	     -4.08468845	     10.31111389	     38.79001201	     -6.40563952	     -6.94411819	    -34.28736453	      2.59818802	      6.49238837	     -3.12047637	      4.04593163	      4.06529811	      2.67480342
      3.97000000	     -5.48321164	     -5.39223747	     -2.29421260	      0.17861843	     -0.01813562	     -0.14622054	     -2.45885962	     13.69709054	     12.46535586	    -12.29221952	      3.20117401	     -3.71107448	     10.56991702	     38.70610089	     -6.48690715	     -7.29978411	    -32.36063029	      2.93033480	      7.43975970	     -3.41368552	      3.94120088	      4.10697932	      2.93353603
      3.97500000	     -5.49439566	     -5.39964334	     -2.46895370	      0.18459348	     -0.01866879	     -0.14622537	     -2.93346045	     13.63819306	     12.47084734	    -12.29095052	      3.36442564	     -3.31084665	     10.82844224	     38.63069503	     -6.57408784	     -7.67451130	    -30.47006764	      3.22509513	      8.46129603	     -3.64434303	      3.86177538	      4.15743581	      3.16954113
      3.98000000	     -5.48028172	     -5.40361963	     -2.66135874	      0.19061611	     -0.01921511	     -0.14625039	     -3.41594803	     13.56652389	     12.47288982	    -12.33778248	      3.54363294	     -2.86620419	     11.11791273	     38.50496400	     -6.65041412	     -8.02764965	    -28.61808766	      3.54710863	      9.48259577	     -3.86164228	      3.76204449	      4.20993304	      3.42492956
      3.98500000	     -5.47944713	     -5.40628352	     -2.84850210	      0.19669814	     -0.01980692	     -0.14627420	     -3.87735499	     13.49014494	     12.48092394	    -12.40362842	      3.72752230	     -2.41082122	     11.41020206	     38.37630414	     -6.71066597	     -8.35052325	    -26.80111337	      3.85504398	     10.50242758	     -4.03658993	      3.68650723	      4.25356457	      3.65020562
      3.99000000	     -5.40514587	     -5.41492928	     -3.06130999	      0.20278885	     -0.02033780	     -0.14635115	     -4.39152073	     13.39758366	     12.42082327	    -12.51504722	      3.94023489	     -1.81538861	     11.79218261	     38.13719825	     -6.75696048	     -8.58261843	    -25.02140874	      4.21323495	     11.41839848	     -4.35829741	      3.52421520	      4.31840044	      3.95679447
      3.99500000	     -5.41018400	     -5.41326386	     -3.25872561	      0.20896444	     -0.02096803	     -0.14638413	     -4.82477828	     13.30239763	     12.44004781	    -12.63200538	      4.12898708	     -1.28337178	     12.12099631	     37.99066190	     -6.79594446	     -8.83759312	    -23.32210371	      4.50514571	     12.39205972	     -4.55768761	      3.46708829	      4.35371409	      4.18038560
